<svg width="121" height="48" viewBox="0 0 121 48" fill="none" xmlns="http://www.w3.org/2000/svg">
<path d="M10.04 11.272L4.272 15.472L0.576 9.816L11.832 1.696H17.376V40H10.04V11.272ZM21.1933 44.984L24.5533 39.888C23.6946 39.552 22.9666 38.992 22.3693 38.208C21.8093 37.424 21.5293 36.5093 21.5293 35.464C21.5293 34.12 21.9959 32.9813 22.9293 32.048C23.8999 31.1147 25.0573 30.648 26.4013 30.648C27.7453 30.648 28.8839 31.1147 29.8173 32.048C30.7879 32.9813 31.2733 34.12 31.2733 35.464C31.2733 36.136 31.1613 36.7333 30.9373 37.256C30.7133 37.7787 30.3399 38.432 29.8173 39.216L24.4973 47.168L21.1933 44.984ZM50.6301 32.944H32.9901V27.008L50.0141 1.696H57.9661V26.112H62.7261V32.944H57.9661V40H50.6301V32.944ZM50.6301 26.112V12.616H50.1821L41.1101 26.112H50.6301ZM77.6528 40.896C75.6368 40.896 73.6954 40.5227 71.8288 39.776C69.9621 38.992 68.3194 37.8347 66.9008 36.304C65.5194 34.736 64.5674 32.8133 64.0448 30.536L70.6528 27.96C71.1008 29.864 71.9221 31.376 73.1168 32.496C74.3114 33.5787 75.8048 34.12 77.5968 34.12C79.3888 34.12 80.8821 33.5227 82.0768 32.328C83.2714 31.1333 83.8688 29.6213 83.8688 27.792C83.8688 26 83.2714 24.5067 82.0768 23.312C80.9194 22.08 79.4261 21.464 77.5968 21.464C76.4768 21.464 75.4501 21.7067 74.5168 22.192C73.6208 22.64 72.8554 23.256 72.2208 24.04L65.1088 20.848L67.2928 1.696H88.9088V8.136H73.3968L71.9968 17.096L72.4448 17.208C74.3114 15.6773 76.5328 14.912 79.1088 14.912C81.2368 14.912 83.2154 15.4533 85.0448 16.536C86.9114 17.6187 88.4048 19.1493 89.5248 21.128C90.6448 23.0693 91.2048 25.2907 91.2048 27.792C91.2048 30.3307 90.6261 32.5893 89.4688 34.568C88.3114 36.5467 86.7061 38.096 84.6528 39.216C82.5994 40.336 80.2661 40.896 77.6528 40.896ZM106.633 40.896C103.945 40.896 101.556 40.2987 99.4653 39.104C97.3746 37.872 95.7506 36.2293 94.5933 34.176C93.4359 32.1227 92.8573 29.9013 92.8573 27.512C92.8573 25.1227 93.3053 22.8827 94.2013 20.792C95.1346 18.7013 96.4973 16.3867 98.2893 13.848L107.529 0.575997L113.241 4.496L105.345 15.584L105.681 15.92C106.54 15.5467 107.511 15.36 108.593 15.36C110.535 15.36 112.383 15.9013 114.137 16.984C115.929 18.0293 117.367 19.504 118.449 21.408C119.569 23.312 120.129 25.44 120.129 27.792C120.129 30.256 119.495 32.496 118.225 34.512C116.993 36.528 115.332 38.096 113.241 39.216C111.188 40.336 108.985 40.896 106.633 40.896ZM106.465 34.176C108.22 34.176 109.732 33.5787 111.001 32.384C112.308 31.1893 112.961 29.6773 112.961 27.848C112.961 26.0187 112.308 24.5067 111.001 23.312C109.732 22.08 108.22 21.464 106.465 21.464C104.748 21.464 103.236 22.08 101.929 23.312C100.66 24.5067 100.025 26.0187 100.025 27.848C100.025 29.6773 100.66 31.1893 101.929 32.384C103.236 33.5787 104.748 34.176 106.465 34.176Z" fill="#B35E21"/>
</svg>
