<svg width="105" height="42" viewBox="0 0 105 42" fill="none" xmlns="http://www.w3.org/2000/svg">
<path d="M10.04 12.272L4.272 16.472L0.576 10.816L11.832 2.696H17.376V41H10.04V12.272ZM35.0121 41.896C32.9961 41.896 31.0548 41.5227 29.1881 40.776C27.3215 39.992 25.6788 38.8347 24.2601 37.304C22.8788 35.736 21.9268 33.8133 21.4041 31.536L28.0121 28.96C28.4601 30.864 29.2815 32.376 30.4761 33.496C31.6708 34.5787 33.1641 35.12 34.9561 35.12C36.7481 35.12 38.2415 34.5227 39.4361 33.328C40.6308 32.1333 41.2281 30.6213 41.2281 28.792C41.2281 27 40.6308 25.5067 39.4361 24.312C38.2788 23.08 36.7855 22.464 34.9561 22.464C33.8361 22.464 32.8095 22.7067 31.8761 23.192C30.9801 23.64 30.2148 24.256 29.5801 25.04L22.4681 21.848L24.6521 2.696H46.2681V9.136H30.7561L29.3561 18.096L29.8041 18.208C31.6708 16.6773 33.8921 15.912 36.4681 15.912C38.5961 15.912 40.5748 16.4533 42.4041 17.536C44.2708 18.6187 45.7641 20.1493 46.8841 22.128C48.0041 24.0693 48.5641 26.2907 48.5641 28.792C48.5641 31.3307 47.9855 33.5893 46.8281 35.568C45.6708 37.5467 44.0655 39.096 42.0121 40.216C39.9588 41.336 37.6255 41.896 35.0121 41.896ZM51.2246 0.903999H58.5606V22.744H58.9526L69.2006 12.44H78.2166V12.888L67.4086 23.472L78.7206 40.552V41H70.0406L62.2566 28.512L58.5606 32.152V41H51.2246V0.903999ZM104.042 29.072H94.4659V38.592H87.9699V29.072H78.4499V22.576H87.9699V13.056H94.4659V22.576H104.042V29.072Z" fill="#1A1D32"/>
</svg>
