<svg width="82" height="26" viewBox="0 0 82 26" fill="none" xmlns="http://www.w3.org/2000/svg">
<path d="M35.312 7.544H39.184C40.3787 7.544 41.4187 7.784 42.304 8.264C43.1893 8.744 43.872 9.416 44.352 10.28C44.832 11.144 45.072 12.1413 45.072 13.272C45.072 14.4027 44.832 15.4 44.352 16.264C43.872 17.128 43.1893 17.8 42.304 18.28C41.4187 18.76 40.3787 19 39.184 19H35.312V7.544ZM39.088 16.952C40.3253 16.952 41.2693 16.6267 41.92 15.976C42.5707 15.3147 42.896 14.4133 42.896 13.272C42.896 12.1307 42.5707 11.2347 41.92 10.584C41.2693 9.92267 40.3253 9.592 39.088 9.592H37.472V16.952H39.088ZM49.3325 19.256C48.4685 19.256 47.7592 19.0053 47.2045 18.504C46.6498 17.992 46.3725 17.3253 46.3725 16.504C46.3725 15.96 46.5165 15.48 46.8045 15.064C47.0925 14.648 47.4872 14.328 47.9885 14.104C48.4898 13.88 49.0445 13.768 49.6525 13.768C50.4952 13.768 51.2152 13.8907 51.8125 14.136V13.784C51.8125 13.336 51.6418 12.9733 51.3005 12.696C50.9698 12.4187 50.5218 12.28 49.9565 12.28C49.5725 12.28 49.1992 12.3707 48.8365 12.552C48.4845 12.7227 48.1912 12.952 47.9565 13.24L46.6125 12.184C47.0072 11.672 47.5032 11.2773 48.1005 11C48.6978 10.7227 49.3485 10.584 50.0525 10.584C51.3005 10.584 52.2498 10.872 52.9005 11.448C53.5512 12.024 53.8765 12.8667 53.8765 13.976V19H51.8125V18.168H51.6845C51.4392 18.488 51.1138 18.7493 50.7085 18.952C50.3138 19.1547 49.8552 19.256 49.3325 19.256ZM49.8285 17.624C50.4365 17.624 50.9165 17.432 51.2685 17.048C51.6312 16.6533 51.8125 16.1947 51.8125 15.672C51.2685 15.416 50.6978 15.288 50.1005 15.288C49.0125 15.288 48.4685 15.6933 48.4685 16.504C48.4685 16.8347 48.5858 17.1067 48.8205 17.32C49.0552 17.5227 49.3912 17.624 49.8285 17.624ZM59.201 19.128C58.7957 19.128 58.4223 19.0693 58.081 18.952C57.7397 18.824 57.4623 18.6533 57.249 18.44C56.7477 17.96 56.497 17.2773 56.497 16.392V12.632H55.073V10.84H56.497V8.536H58.593V10.84H60.593V12.632H58.593V16.008C58.593 16.424 58.6837 16.7227 58.865 16.904C59.0143 17.0747 59.2703 17.16 59.633 17.16C59.8357 17.16 60.001 17.1333 60.129 17.08C60.2677 17.0267 60.4437 16.936 60.657 16.808V18.856C60.1983 19.0373 59.713 19.128 59.201 19.128ZM63.5986 9.944C63.2253 9.944 62.9053 9.81067 62.6386 9.544C62.372 9.27733 62.2386 8.95733 62.2386 8.584C62.2386 8.21067 62.372 7.896 62.6386 7.64C62.9053 7.37333 63.2253 7.24 63.5986 7.24C63.972 7.24 64.2866 7.37333 64.5426 7.64C64.8093 7.896 64.9426 8.21067 64.9426 8.584C64.9426 8.95733 64.8093 9.27733 64.5426 9.544C64.2866 9.81067 63.972 9.944 63.5986 9.944ZM62.5426 10.84H64.6386V19H62.5426V10.84ZM67.7165 12.632H66.2605V10.84H67.7165V10.392C67.7165 9.464 67.9938 8.73867 68.5485 8.216C69.1032 7.68267 69.8285 7.416 70.7245 7.416C71.2365 7.416 71.6792 7.47467 72.0525 7.592V9.64C71.8498 9.55467 71.6685 9.49067 71.5085 9.448C71.3592 9.40533 71.1832 9.384 70.9805 9.384C70.6285 9.384 70.3458 9.48533 70.1325 9.688C69.9192 9.89067 69.8125 10.168 69.8125 10.52V10.84H71.8125V12.632H69.8125V19H67.7165V12.632ZM75.9899 18.616L72.5499 10.84H74.9339L77.0459 15.912H77.1739L79.2059 10.84H81.5419L76.5019 22.456H74.2459L75.9899 18.616Z" fill="#1A1D32"/>
<circle cx="9" cy="20" r="1" stroke="#ED9B59" stroke-width="1.5"/>
<circle cx="15" cy="20" r="1" stroke="#ED9B59" stroke-width="1.5"/>
<path fill-rule="evenodd" clip-rule="evenodd" d="M6.00001 3.00006C5.30446 4.91189 3.97163 8.68865 9.00001 12C10.4142 9.55054 10.416 5.95789 6.00001 3.00006Z" stroke="#ED9B59" stroke-width="1.5" stroke-linecap="round" stroke-linejoin="round"/>
<path d="M3 21C3 16.0294 7.02944 12 12 12C16.9706 12 21 16.0294 21 21" stroke="#ED9B59" stroke-width="1.5" stroke-linecap="round" stroke-linejoin="round"/>
<path fill-rule="evenodd" clip-rule="evenodd" d="M18 2.99997C16.4418 4.30789 12.301 6.618 15 11.9999C17.4495 10.5857 20.3455 7.76954 18 2.99997Z" stroke="#ED9B59" stroke-width="1.5" stroke-linecap="round" stroke-linejoin="round"/>
</svg>
